{
  "accessors": [
    {
      "bufferView": 2,
      "componentType": 5126,
      "count": 2529,
      "max": [
        -59.87200164794922,
        0.2484470009803772,
        -95.11785888671875
      ],
      "min": [
        -63.923484802246094,
        -0.2484470009803772,
        -98.46280670166016
      ],
      "type": "VEC3"
    },
    {
      "bufferView": 2,
      "byteOffset": 30348,
      "componentType": 5126,
      "count": 2529,
      "max": [
        1.0,
        1.0,
        1.0
      ],
      "min": [
        -1.0,
        -1.0,
        -1.0
      ],
      "type": "VEC3"
    },
    {
      "bufferView": 1,
      "componentType": 5126,
      "count": 2529,
      "max": [
        0.9958879947662354,
        1.0
      ],
      "min": [
        0.0,
        0.0
      ],
      "type": "VEC2"
    },
    {
      "bufferView": 0,
      "componentType": 5125,
      "count": 11148,
      "type": "SCALAR"
    },
    {
      "bufferView": 2,
      "byteOffset": 60696,
      "componentType": 5126,
      "count": 321,
      "max": [
        63.956058502197266,
        0.2572630047798157,
        -94.83676147460938
      ],
      "min": [
        48.89021682739258,
        -0.2572630047798157,
        -98.69686889648438
      ],
      "type": "VEC3"
    },
    {
      "bufferView": 2,
      "byteOffset": 64548,
      "componentType": 5126,
      "count": 321,
      "max": [
        1.0,
        1.0,
        1.0
      ],
      "min": [
        -1.0,
        -1.0,
        -1.0
      ],
      "type": "VEC3"
    },
    {
      "bufferView": 1,
      "byteOffset": 20232,
      "componentType": 5126,
      "count": 321,
      "max": [
        0.875,
        1.0
      ],
      "min": [
        0.125,
        0.0
      ],
      "type": "VEC2"
    },
    {
      "bufferView": 0,
      "byteOffset": 44592,
      "componentType": 5125,
      "count": 624,
      "type": "SCALAR"
    },
    {
      "bufferView": 2,
      "byteOffset": 68400,
      "componentType": 5126,
      "count": 7280,
      "max": [
        -23.367721557617188,
        -0.9649879932403564,
        -49.07155990600586
      ],
      "min": [
        -64.06407165527344,
        -1.5350120067596436,
        -51.92571258544922
      ],
      "type": "VEC3"
    },
    {
      "bufferView": 2,
      "byteOffset": 155760,
      "componentType": 5126,
      "count": 7280,
      "max": [
        1.0,
        1.0,
        1.0
      ],
      "min": [
        -1.0,
        -1.0,
        -1.0
      ],
      "type": "VEC3"
    },
    {
      "bufferView": 1,
      "byteOffset": 22800,
      "componentType": 5126,
      "count": 7280,
      "max": [
        0.9860820174217224,
        0.9980080127716064
      ],
      "min": [
        0.0019680000841617584,
        0.0019920000340789557
      ],
      "type": "VEC2"
    },
    {
      "bufferView": 0,
      "byteOffset": 47088,
      "componentType": 5125,
      "count": 25356,
      "type": "SCALAR"
    },
    {
      "bufferView": 2,
      "byteOffset": 243120,
      "componentType": 5126,
      "count": 3166,
      "max": [
        -43.466163635253906,
        -0.7196879982948303,
        -40.65868377685547
      ],
      "min": [
        -64.33035278320313,
        -1.780311942100525,
        -45.7674674987793
      ],
      "type": "VEC3"
    },
    {
      "bufferView": 2,
      "byteOffset": 281112,
      "componentType": 5126,
      "count": 3166,
      "max": [
        1.0,
        1.0,
        1.0
      ],
      "min": [
        -1.0,
        -1.0,
        -1.0
      ],
      "type": "VEC3"
    },
    {
      "bufferView": 1,
      "byteOffset": 81040,
      "componentType": 5126,
      "count": 3166,
      "max": [
        0.9187219738960266,
        0.9980080127716064
      ],
      "min": [
        0.0018339999951422215,
        0.0019920000340789557
      ],
      "type": "VEC2"
    },
    {
      "bufferView": 0,
      "byteOffset": 148512,
      "componentType": 5125,
      "count": 11610,
      "type": "SCALAR"
    }
  ],
  "asset": {
    "extras": {
      "author": "Sebastian Paez (https://sketchfab.com/TINOPAEZ)",
      "license": "CC-BY-4.0 (http://creativecommons.org/licenses/by/4.0/)",
      "source": "https://sketchfab.com/3d-models/spotify-f5b7958a6c67413e866378d4a59bb702",
      "title": "spotify"
    },
    "generator": "Sketchfab-16.14.0",
    "version": "2.0"
  },
  "bufferViews": [
    {
      "buffer": 0,
      "byteLength": 194952,
      "name": "floatBufferViews",
      "target": 34963
    },
    {
      "buffer": 0,
      "byteLength": 106368,
      "byteOffset": 194952,
      "byteStride": 8,
      "name": "floatBufferViews",
      "target": 34962
    },
    {
      "buffer": 0,
      "byteLength": 319104,
      "byteOffset": 301320,
      "byteStride": 12,
      "name": "floatBufferViews",
      "target": 34962
    }
  ],
  "buffers": [
    {
      "byteLength": 620424,
      "uri": "scene.bin"
    }
  ],
  "materials": [
    {
      "doubleSided": true,
      "name": "aiStandardSurface1SG",
      "pbrMetallicRoughness": {
        "metallicFactor": 0.0,
        "roughnessFactor": 0.6
      }
    },
    {
      "doubleSided": true,
      "name": "initialShadingGroup",
      "pbrMetallicRoughness": {
        "metallicFactor": 0.0,
        "roughnessFactor": 0.6
      }
    },
    {
      "doubleSided": true,
      "name": "typeStandardSurface1SG",
      "pbrMetallicRoughness": {
        "metallicFactor": 0.0,
        "roughnessFactor": 0.6
      }
    },
    {
      "doubleSided": true,
      "name": "typeStandardSurfaceSG",
      "pbrMetallicRoughness": {
        "metallicFactor": 0.0,
        "roughnessFactor": 0.6
      }
    }
  ],
  "meshes": [
    {
      "name": "Object_0",
      "primitives": [
        {
          "attributes": {
            "NORMAL": 1,
            "POSITION": 0,
            "TEXCOORD_0": 2
          },
          "indices": 3,
          "material": 0,
          "mode": 4
        }
      ]
    },
    {
      "name": "Object_1",
      "primitives": [
        {
          "attributes": {
            "NORMAL": 5,
            "POSITION": 4,
            "TEXCOORD_0": 6
          },
          "indices": 7,
          "material": 1,
          "mode": 4
        }
      ]
    },
    {
      "name": "Object_2",
      "primitives": [
        {
          "attributes": {
            "NORMAL": 9,
            "POSITION": 8,
            "TEXCOORD_0": 10
          },
          "indices": 11,
          "material": 2,
          "mode": 4
        }
      ]
    },
    {
      "name": "Object_3",
      "primitives": [
        {
          "attributes": {
            "NORMAL": 13,
            "POSITION": 12,
            "TEXCOORD_0": 14
          },
          "indices": 15,
          "material": 3,
          "mode": 4
        }
      ]
    }
  ],
  "nodes": [
    {
      "children": [
        1
      ],
      "matrix": [
        1.0,
        0.0,
        0.0,
        0.0,
        0.0,
        2.220446049250313e-16,
        -1.0,
        0.0,
        0.0,
        1.0,
        2.220446049250313e-16,
        0.0,
        0.0,
        0.0,
        0.0,
        1.0
      ],
      "name": "Sketchfab_model"
    },
    {
      "children": [
        2,
        3,
        4,
        5
      ],
      "name": "spotify.obj.cleaner.materialmerger.gles"
    },
    {
      "mesh": 0,
      "name": "Object_2"
    },
    {
      "mesh": 1,
      "name": "Object_3"
    },
    {
      "mesh": 2,
      "name": "Object_4"
    },
    {
      "mesh": 3,
      "name": "Object_5"
    }
  ],
  "scene": 0,
  "scenes": [
    {
      "name": "Sketchfab_Scene",
      "nodes": [
        0
      ]
    }
  ]
}
