{
  "accessors": [
    {
      "bufferView": 2,
      "componentType": 5126,
      "count": 4277,
      "max": [
        14.437887191772461,
        -0.703046977519989,
        -35.068965911865234
      ],
      "min": [
        8.151229858398438,
        -0.8931930065155029,
        -35.84257888793945
      ],
      "type": "VEC3"
    },
    {
      "bufferView": 2,
      "byteOffset": 51324,
      "componentType": 5126,
      "count": 4277,
      "max": [
        1.0,
        1.0,
        1.0
      ],
      "min": [
        -1.0,
        -1.0,
        -1.0
      ],
      "type": "VEC3"
    },
    {
      "bufferView": 1,
      "componentType": 5126,
      "count": 4277,
      "max": [
        0.991042971611023,
        0.9980080127716064
      ],
      "min": [
        0.0019779999274760485,
        0.0019920000340789557
      ],
      "type": "VEC2"
    },
    {
      "bufferView": 0,
      "componentType": 5125,
      "count": 15438,
      "type": "SCALAR"
    }
  ],
  "asset": {
    "extras": {
      "author": "Sebastian Paez (https://sketchfab.com/TINOPAEZ)",
      "license": "CC-BY-4.0 (http://creativecommons.org/licenses/by/4.0/)",
      "source": "https://sketchfab.com/3d-models/mostrar-todo-f73b7a24fe4741c68d105e2972024990",
      "title": "mostrar todo"
    },
    "generator": "Sketchfab-16.14.0",
    "version": "2.0"
  },
  "bufferViews": [
    {
      "buffer": 0,
      "byteLength": 61752,
      "name": "floatBufferViews",
      "target": 34963
    },
    {
      "buffer": 0,
      "byteLength": 34216,
      "byteOffset": 61752,
      "byteStride": 8,
      "name": "floatBufferViews",
      "target": 34962
    },
    {
      "buffer": 0,
      "byteLength": 102648,
      "byteOffset": 95968,
      "byteStride": 12,
      "name": "floatBufferViews",
      "target": 34962
    }
  ],
  "buffers": [
    {
      "byteLength": 198616,
      "uri": "tf.bin"
    }
  ],
  "materials": [
    {
      "doubleSided": true,
      "name": "typeStandardSurfaceSG",
      "pbrMetallicRoughness": {
        "metallicFactor": 0.0
      }
    }
  ],
  "meshes": [
    {
      "name": "Object_0",
      "primitives": [
        {
          "attributes": {
            "NORMAL": 1,
            "POSITION": 0,
            "TEXCOORD_0": 2
          },
          "indices": 3,
          "material": 0,
          "mode": 4
        }
      ]
    }
  ],
  "nodes": [
    {
      "children": [
        1
      ],
      "matrix": [
        1.0,
        0.0,
        0.0,
        0.0,
        0.0,
        2.220446049250313e-16,
        -1.0,
        0.0,
        0.0,
        1.0,
        2.220446049250313e-16,
        0.0,
        0.0,
        0.0,
        0.0,
        1.0
      ],
      "name": "Sketchfab_model"
    },
    {
      "children": [
        2
      ],
      "name": "mostrar todo.obj.cleaner.materialmerger.gles"
    },
    {
      "mesh": 0,
      "name": "Object_2"
    }
  ],
  "scene": 0,
  "scenes": [
    {
      "name": "Sketchfab_Scene",
      "nodes": [
        0
      ]
    }
  ]
}
